<svg id="Layer_2" data-name="Layer 2" xmlns="http://www.w3.org/2000/svg" viewBox="0 0 226.23 229.05">
  <defs>
    <style>
      .cls-1 {
        fill: #873e27;
      }
    </style>
  </defs>
  <g id="Layer_1-2" data-name="Layer 1">
    <g>
      <g>
        <path class="cls-1" d="m19.16,208.09c-.89-.5-1.89-.89-2.99-1.17,3.23-1.74,4.84-4.36,4.79-7.79-.04-3.17-1.06-5.64-3.06-7.35-1.76-1.48-4.08-2.21-6.92-2.21H0l.91,1.02c.59.65.69,1.02.69,1.19v33.48c0,.13-.09.5-.72,1.22l-.87,1h11.91c4.36,0,7.64-1.19,9.72-3.56,1.69-1.89,2.54-4.38,2.49-7.38-.04-3.82-1.71-6.66-4.99-8.44Zm-4.36-5.79c-.43,1.39-.82,1.87-1.04,2.04-1.37,1.17-2.78,1.78-4.19,1.78h-2.17v-13.63h2.52c1.41,0,2.45.26,3.1.78,1.56,1.17,2.32,2.93,2.32,5.42,0,1.26-.17,2.45-.54,3.6Zm-7.4,6.92h4.73c1.87,0,3.43.78,4.79,2.36,1.37,1.58,2.06,3.49,2.02,5.64-.04,2.1-.74,3.82-2.1,5.25-1.39,1.43-2.86,2.13-4.53,2.13h-4.9v-15.38Z"/>
        <path class="cls-1" d="m52.99,227.47h9.05l-1.41-1.05c-1-.74-1.28-1.13-1.37-1.32l-16.38-35.87-3.45,5.42,1.21,2.65-12.52,27.63c-.15.4-.5.76-1.02,1.07-.22.13-.46.25-.74.34l-3.12,1.13h10.09l-2.3-1.11c-.33-.15-.37-.32-.37-.46,0-.08.04-.21.13-.38l5.03-11.14h12.56l5.1,11.2c.11.25.07.63-.13,1.09l-.37.8Zm-10.93-27.02l5.12,11.2h-10.15l5.03-11.2Z"/>
        <path class="cls-1" d="m67.04,225.25v-33.41c0-.17-.09-.56-.69-1.28l-.87-1h8.96l-.85,1c-.61.72-.69,1.11-.69,1.28v33.41c0,.13.07.5.69,1.22l.87,1h-9l.89-1c.63-.72.69-1.08.69-1.22Z"/>
        <path class="cls-1" d="m118.71,194.79c-3.86-3.47-8.57-5.23-13.97-5.23h-17.81l.85,1c.61.72.72,1.11.72,1.28v33.41c0,.13-.09.5-.69,1.22l-.89,1h18.07c5.45,0,10.22-1.91,14.17-5.66,3.97-3.78,5.92-8.35,5.81-13.6-.15-5.29-2.26-9.81-6.25-13.41Zm-13.97,29.85h-10.41l.07-32.2h10.28c3.54,0,6.86,1.41,9.87,4.23,3.36,3.17,5.03,7.12,4.97,11.69-.04,4.86-1.84,8.94-5.38,12.13-3.02,2.76-6.18,4.14-9.39,4.14Z"/>
        <path class="cls-1" d="m131.28,224.83v-33.41c0-.17-.09-.56-.69-1.28l-.87-1h8.96l-.85,1c-.61.72-.69,1.11-.69,1.28v33.41c0,.13.07.5.69,1.22l.87,1h-9l.89-1c.63-.72.69-1.08.69-1.22Z"/>
        <path class="cls-1" d="m185.46,189.56l-2.91,1.17c-.82.33-.93.82-.93,1.21v37.1l-31.89-33.15v29.35c0,.37.09.78.8,1.04l2.99,1.17h-10.7l3.12-1.17c.89-.33,1-.82,1-1.21v-32.11c-.39-.98-.98-1.76-1.69-2.32l-1.37-1.08h10.13l-.43.87c-.11.24-.17.48-.17.74,0,.13.02.24.04.35l25.36,26.14v-25.88c0-.35-.11-.76-.87-1.04l-3.15-1.17h10.65Z"/>
        <path class="cls-1" d="m218.87,225.25v-17.16h-22.63v17.16c0,.13.07.5.69,1.22l.89,1h-9l.87-1c.63-.72.72-1.08.72-1.22v-33.41c0-.17-.11-.56-.72-1.28l-.85-1h8.96l-.85,1c-.63.72-.72,1.11-.72,1.28v13.43h22.63v-13.43c0-.17-.09-.59-.67-1.3l-.78-.98h8.79l-.78.98c-.56.72-.65,1.13-.65,1.3v33.41c0,.17.09.54.65,1.24l.8.98h-8.83l.82-.98c.56-.69.65-1.06.65-1.24Z"/>
        <rect class="cls-1" x="83.54" y="206.61" width="16.94" height="3.58"/>
      </g>
      <g>
        <path class="cls-1" d="m72.96,160.45c-4.13.62-8.22.91-12.18.91-15.32,0-29.11-4.41-39.44-12.98C5.99,135.66,2.36,121.26,1.15,113.71c-1.77-11.17-.82-23.56,2.67-39.02,2.13-9.44,4.79-21.19,7.74-38.37.94-5.51,1.83-11.07,2.67-16.56.22-1.71,1.69-2.88,3.35-2.88.32,0,.68.04,1.02.14,12.4,3.8,22.19,8.21,29.51,13.28-1.36,2.01-2.65,3.9-3.89,5.69-3.73-2.64-8.3-5.11-13.6-7.4-5.11-2.19-10.95.87-11.87,6.34l-1.52,9.12c-2.99,17.37-4.73,23.12-6.76,32.1-3.39,15.11-4.15,26.6-2.59,36.48,1.08,6.82,4.25,19.28,17.81,30.51,3.21,2.66,6.82,4.89,10.73,6.62.04.04.1.06.16.08,15.61,7.67,34.44,10.34,36.23,10.58.1.02.14.02.14.02Z"/>
        <g>
          <path class="cls-1" d="m62.87,126.45c-.04-.09-.06-.17-.11-.26h.02c.02.09.06.17.09.26Z"/>
          <path class="cls-1" d="m63.9,128.94c-.34-.73-.67-1.48-.95-2.23-.04-.09-.06-.17-.09-.26.37.88.71,1.69,1.03,2.49Z"/>
        </g>
        <path class="cls-1" d="m225.17,113.71c-1.22,7.55-4.85,21.95-20.18,34.67-10.33,8.57-24.13,12.98-39.44,12.98-3.95,0-8.04-.3-12.14-.91.02-.02.04-.02.08-.02,1.79-.24,20.62-2.9,36.23-10.58.06-.02.12-.06.18-.08,3.91-1.73,7.52-3.96,10.73-6.62,13.56-11.23,16.73-23.7,17.81-30.51,1.56-9.88.8-21.37-2.59-36.48-2.03-8.99-3.77-14.73-6.76-32.1l-1.52-9.12c-.92-5.47-6.76-8.53-11.87-6.34-5.3,2.29-9.87,4.75-13.6,7.4-1.24-1.79-2.53-3.68-3.89-5.69,7.32-5.07,17.11-9.48,29.51-13.28.34-.1.7-.14,1.02-.14,1.66,0,3.13,1.17,3.37,2.88.82,5.49,1.71,11.05,2.65,16.56,2.95,17.18,5.6,28.92,7.74,38.37,3.49,15.47,4.45,27.85,2.67,39.02Z"/>
        <g>
          <path class="cls-1" d="m203.58,81.38c-2.82-10.96-8.88-20.63-18.24-33.45-5.7-7.83-12.8-17.54-22.33-32.19-3.08-4.7-6.11-9.48-9.01-14.15-.67-1.05-1.76-1.59-2.9-1.59-.77,0-1.55.26-2.19.79-18.95,16.04-28.24,30.43-28.24,43.79,0,1.5.13,2.98.37,4.48,1.72,11.02,9.46,18.36,17.66,26.16,9.08,8.64,18.46,17.56,20.11,32.36.37,3.09.3,5.88.02,8.28,2.73,1.05,5.01,1.82,6.63,2.38.45-3.24.6-7.08.13-11.41-1.91-17.26-12.67-27.49-22.18-36.54-7.66-7.27-14.26-13.55-15.64-22.3-1.46-9.26,3.4-19.84,14.46-31.59,3.92-4.16,10.73-3.65,13.9,1.14l5.87,8.9c3.23,4.91,5.66,8.53,7.7,11.47-3.31,3.82-5.55,7.96-6.69,12.42-2.8,10.81,1.38,20.63,5.83,31.01,4.9,11.54,9.98,23.42,5.61,37.68-2.43,7.93-6.6,12.85-8.3,14.6-3.83,3.97-8.37,6.56-12.95,8.23-.02.02-.04.02-.06.02.95-.9,1.87-1.84,2.75-2.83.88-1.01,1.72-2.06,2.52-3.15.41-.56.8-1.11,1.16-1.69.39-.58.75-1.16,1.1-1.78.34-.6.69-1.22,1.01-1.84.32-.64.62-1.29.93-1.95.11-.24.19-.47.3-.73.09-.24.19-.49.3-.77.11-.3.24-.6.34-.92.04-.11.09-.21.13-.34h.02c.43-1.2.86-2.49,1.18-3.86-10.95-4.25-39.86-17.13-48.87-36.95.37-3.43.77-8.86.02-12.27-.67-3.09-1.59-9.14-2.17-13.15-.15-.96-1.08-.96-1.23,0-.58,4.01-1.51,10.06-2.17,13.15-.77,3.52-.3,9.2.09,12.61-9.23,20.33-39.17,33.26-48.98,37.03.34,1.35.77,2.62,1.23,3.77h.02c.02.09.06.17.09.26.37.88.71,1.69,1.03,2.49,2.3,5.15,5.59,9.39,9.27,12.91-4.58-1.67-9.14-4.27-12.97-8.23-1.7-1.76-5.89-6.67-8.32-14.6-4.37-14.26.71-26.14,5.64-37.68,4.43-10.38,8.6-20.2,5.83-31.01-1.14-4.46-3.38-8.6-6.69-12.42,2.02-2.94,4.47-6.56,7.68-11.47l5.87-8.9c3.18-4.78,9.98-5.3,13.9-1.14,11.06,11.75,15.94,22.32,14.48,31.59-1.38,8.75-8,15.03-15.66,22.3-9.49,9.05-20.26,19.28-22.18,36.54-.47,4.33-.3,8.17.15,11.41,1.59-.56,3.89-1.33,6.6-2.38-.28-2.4-.32-5.19.02-8.28,1.66-14.8,11.04-23.72,20.11-32.36,8.2-7.81,15.94-15.14,17.68-26.16.24-1.5.34-2.98.34-4.48,0-13.36-9.29-27.75-28.24-43.79-.62-.54-1.4-.79-2.19-.79-1.12,0-2.24.54-2.9,1.59-2.9,4.67-5.92,9.46-8.99,14.15-9.55,14.65-16.65,24.36-22.33,32.19-9.36,12.82-15.45,22.49-18.26,33.45-1.91,7.42-3.96,23.4,5.08,41.13,8.02,15.8,24.5,27.15,45.09,32.06-14.05-7.01-24.65-17.37-29.13-22.15l-.06-.09c-4.07-3.75-7.4-8.08-9.83-12.87-7.96-15.7-6.24-29.72-4.52-36.41,2.47-9.67,8.05-18.61,17.17-31.16,2.24-3.09,4.02-5.45,6.02-8.19,2.04,2.64,3.46,5.43,4.19,8.32,2.22,8.58-1.36,16.96-5.53,26.65-5.12,12.05-10.95,25.71-5.85,42.31,2.73,9.03,7.4,14.75,9.92,17.37,2.17,2.23,4.6,4.2,7.29,5.88.09.04.15.09.24.15,7.57,5.34,16.99,10.46,27.32,12.72,3.81,1.07,12.71,1.82,23.1,1.82s19.14-.75,23-1.82c.09,0,.15-.02.22-.04.04,0,.06-.02.11-.02.54-.13,1.05-.26,1.59-.39,1.31-.34,2.58-.71,3.85-1.14.95-.3,1.89-.62,2.82-.99,1.85-.71,3.66-1.48,5.42-2.32.88-.41,1.74-.86,2.6-1.31,1.08-.56,2.15-1.14,3.18-1.72.11-.04.19-.11.3-.17,2.56-1.5,4.99-3.09,7.25-4.67.06-.04.15-.11.22-.15.02-.02.06-.02.09-.04,2.65-1.65,5.03-3.58,7.16-5.79,2.54-2.62,7.18-8.34,9.92-17.37,5.12-16.6-.73-30.26-5.85-42.31-4.15-9.69-7.72-18.08-5.53-26.65.75-2.89,2.15-5.68,4.19-8.32,2,2.74,3.81,5.1,6.04,8.19,9.12,12.54,14.67,21.49,17.17,31.16,1.72,6.69,3.42,20.71-4.54,36.41-2.43,4.78-5.77,9.11-9.83,12.87l-.06.09c-4.47,4.78-15.08,15.14-29.1,22.15,20.59-4.91,37.04-16.25,45.09-32.06,9.01-17.73,6.97-33.71,5.06-41.13Zm-66.47,63.52l-1.61.79s-.02-.02-.04-.06c-3.38-8.96-12.05-15.35-22.22-15.35s-18.91,6.41-22.29,15.42c0,.02-.02.04-.02.04-.54-.24-1.08-.51-1.61-.81-7.14-3.67-14.78-9.44-18.93-18.27,10.11-3.92,25.62-11.32,35.99-22.99,3.87-4.4,10.86-4.4,14.76,0,10.02,11.26,24.89,18.59,35,22.58.02.02.04.02.06.02-4.11,9.03-11.85,14.93-19.08,18.63Z"/>
          <path class="cls-1" d="m156.19,126.26c-4.11,9.03-11.85,14.93-19.08,18.63,7.21-3.75,14.95-9.63,19.02-18.66.02.02.04.02.06.02Z"/>
          <path class="cls-1" d="m163.54,126.2s0,.06-.02.11c-.02.06-.04.11-.06.15-.04.09-.09.17-.11.26-.04.13-.11.28-.17.41.11-.3.24-.6.34-.92h.02Z"/>
        </g>
        <path class="cls-1" d="m163.67,125.85c-.04.13-.09.24-.13.34,0,.04,0,.06-.02.11-.02.06-.04.11-.06.15-.02.09-.04.17-.09.26-.15.41-.3.79-.49,1.18.09-.24.19-.49.3-.77.11-.3.24-.6.34-.92.04-.11.09-.21.13-.34h.02Z"/>
        <path class="cls-1" d="m155.86,139.04c-.86.99-1.76,1.93-2.69,2.81-.02.02-.04.02-.06.02.95-.9,1.87-1.84,2.75-2.83Z"/>
        <path class="cls-1" d="m150.23,152.21c-1.76.86-3.57,1.63-5.42,2.32,1.85-.71,3.66-1.48,5.42-2.32Z"/>
        <path class="cls-1" d="m156.02,149.19c-1.03.6-2.11,1.2-3.18,1.72,1.08-.56,2.15-1.14,3.18-1.72Z"/>
        <path class="cls-1" d="m163.93,144.12c-2.37,1.67-4.9,3.35-7.62,4.89,2.56-1.5,4.99-3.09,7.25-4.67.06-.04.15-.11.22-.15.02-.02.06-.02.09-.04.02,0,.04-.02.06-.02Z"/>
      </g>
      <polygon class="cls-1" points="134.95 187.02 133.36 187.02 136.04 179.56 140.04 179.56 134.95 187.02"/>
      <polygon class="cls-1" points="43.47 187.02 41.88 187.02 44.56 179.56 48.56 179.56 43.47 187.02"/>
    </g>
  </g>
</svg>